<svg version="1.1" xmlns="http://www.w3.org/2000/svg" xmlns:xlink="http://www.w3.org/1999/xlink" width="407.5" height="333.38276" viewBox="0,0,407.5,333.38276"><g transform="translate(-26.5,-12.95057)"><g data-paper-data="{&quot;isPaintingLayer&quot;:true}" fill="#ff0000" fill-rule="nonzero" stroke="none" stroke-width="0" stroke-linecap="butt" stroke-linejoin="miter" stroke-miterlimit="10" stroke-dasharray="" stroke-dashoffset="0" style="mix-blend-mode: normal"><path d="M87.50001,70.5c0,-1.933 1.567,-3.5 3.5,-3.5c1.933,0 3.5,1.567 3.5,3.5c0,1.933 -1.567,3.5 -3.5,3.5c-1.933,0 -3.5,-1.567 -3.5,-3.5z"/><path d="M233.33335,300.83333c0,-1.24264 1.00736,-2.25 2.25,-2.25c1.24264,0 2.25,1.00736 2.25,2.25c0,1.24264 -1.00736,2.25 -2.25,2.25c-1.24264,0 -2.25,-1.00736 -2.25,-2.25z"/><path d="M401.00001,194.625c0,-2.55432 2.07069,-4.625 4.625,-4.625c2.55431,0 4.625,2.07068 4.625,4.625c0,2.55432 -2.07069,4.625 -4.625,4.625c-2.55431,0 -4.625,-2.07068 -4.625,-4.625z"/><path d="M311.83334,258.83333c0,-1.933 1.567,-3.5 3.5,-3.5c1.933,0 3.5,1.567 3.5,3.5c0,1.933 -1.567,3.5 -3.5,3.5c-1.933,0 -3.5,-1.567 -3.5,-3.5z"/><path d="M378.50001,137.25c0,-1.51878 1.23122,-2.75 2.75,-2.75c1.51878,0 2.75,1.23122 2.75,2.75c0,1.51878 -1.23122,2.75 -2.75,2.75c-1.51878,0 -2.75,-1.23122 -2.75,-2.75z"/><path d="M159.75001,283.75c0,-1.51878 1.23122,-2.75 2.75,-2.75c1.51878,0 2.75,1.23122 2.75,2.75c0,1.51878 -1.23122,2.75 -2.75,2.75c-1.51878,0 -2.75,-1.23122 -2.75,-2.75z"/><path d="M90.95844,173.91482c-1.15107,-1.55291 -0.8253,-3.74491 0.72761,-4.89597c1.55291,-1.15106 3.74491,-0.82531 4.89597,0.7276c1.15107,1.55291 0.82531,3.74492 -0.7276,4.89598c-1.55291,1.15106 -3.74491,0.8253 -4.89598,-0.72761z"/><path d="M243.41321,211.94136c-0.73997,-0.9983 -0.53055,-2.40744 0.46775,-3.14741c0.9983,-0.73997 2.40744,-0.53055 3.14741,0.46775c0.73997,0.9983 0.53055,2.40744 -0.46775,3.14741c-0.9983,0.73997 -2.40744,0.53055 -3.14741,-0.46775z"/><path d="M271.50194,20.32997c-1.52105,-2.05206 -1.09058,-4.94864 0.96148,-6.46969c2.05206,-1.52105 4.94864,-1.09058 6.46969,0.96148c1.52105,2.05206 1.09058,4.94864 -0.96148,6.46969c-2.05206,1.52105 -4.94864,1.09058 -6.46969,-0.96148z"/><path d="M53.09774,322.90858c-1.15107,-1.55291 -0.8253,-3.74491 0.72761,-4.89597c1.55291,-1.15107 3.74491,-0.82531 4.89598,0.7276c1.15107,1.55291 0.8253,3.74491 -0.72761,4.89598c-1.55291,1.15107 -3.74491,0.8253 -4.89598,-0.72761z"/><path d="M364.48722,54.25459c-0.9044,-1.22014 -0.64845,-2.94244 0.57169,-3.84684c1.22014,-0.9044 2.94243,-0.64845 3.84684,0.57169c0.9044,1.22014 0.64845,2.94244 -0.57169,3.84684c-1.22014,0.9044 -2.94243,0.64845 -3.84684,-0.57169z"/><path d="M284.55373,95.45472c-0.9044,-1.22014 -0.64844,-2.94244 0.5717,-3.84684c1.22014,-0.9044 2.94243,-0.64845 3.84683,0.57169c0.9044,1.22014 0.64845,2.94244 -0.57169,3.84684c-1.22014,0.9044 -2.94243,0.64845 -3.84684,-0.57169z"/><path d="M30.83335,34.83334c0,-1.93299 1.567,-3.5 3.5,-3.5c1.93299,0 3.5,1.567 3.5,3.5c0,1.93299 -1.56701,3.5 -3.5,3.5c-1.93299,0 -3.5,-1.56701 -3.5,-3.5z"/><path d="M428.50001,314.25c0,-1.51878 1.23122,-2.75 2.75,-2.75c1.51878,0 2.75,1.23122 2.75,2.75c0,1.51878 -1.23122,2.75 -2.75,2.75c-1.51878,0 -2.75,-1.23122 -2.75,-2.75z"/><path d="M26.50001,140.5c0,-1.933 1.567,-3.5 3.5,-3.5c1.933,0 3.5,1.567 3.5,3.5c0,1.933 -1.567,3.5 -3.5,3.5c-1.933,0 -3.5,-1.567 -3.5,-3.5z"/><path d="M189.33335,150.83333c0,-1.24264 1.00736,-2.25 2.25,-2.25c1.24264,0 2.25,1.00736 2.25,2.25c0,1.24264 -1.00736,2.25 -2.25,2.25c-1.24264,0 -2.25,-1.00736 -2.25,-2.25z"/><path d="M180.55374,59.45472c-0.9044,-1.22014 -0.64844,-2.94244 0.5717,-3.84684c1.22014,-0.9044 2.94243,-0.64845 3.84683,0.57169c0.9044,1.22014 0.64845,2.94244 -0.57169,3.84684c-1.22014,0.9044 -2.94243,0.64845 -3.84684,-0.57169z"/><path d="M327.83333,342.83333c0,-1.933 1.567,-3.5 3.5,-3.5c1.933,0 3.5,1.567 3.5,3.5c0,1.933 -1.567,3.5 -3.5,3.5c-1.933,0 -3.5,-1.567 -3.5,-3.5z"/></g></g></svg>