<svg version="1.1" xmlns="http://www.w3.org/2000/svg" xmlns:xlink="http://www.w3.org/1999/xlink" width="53.09066" height="53.09066" viewBox="0,0,53.09066,53.09066"><defs><radialGradient cx="240" cy="179.99983" r="26.54487" gradientUnits="userSpaceOnUse" id="color-1"><stop offset="0" stop-color="#e6d325"/><stop offset="1" stop-color="#e37a00"/></radialGradient></defs><g transform="translate(-213.45467,-153.45467)"><g data-paper-data="{&quot;isPaintingLayer&quot;:true}" fill-rule="nonzero" stroke-linejoin="miter" stroke-miterlimit="10" stroke-dasharray="" stroke-dashoffset="0" style="mix-blend-mode: normal"><path d="M213.45467,180c0,-14.66058 11.88475,-26.54533 26.54533,-26.54533c14.66058,0 26.54533,11.88475 26.54533,26.54533c0,14.66058 -11.88475,26.54533 -26.54533,26.54533c-14.66058,0 -26.54533,-11.88475 -26.54533,-26.54533z" fill="url(#color-1)" stroke="none" stroke-width="1" stroke-linecap="butt"/><path d="M237.16025,168.13502l-0.13777,-5.23544l-7.16427,4.40878l7.0265,5.64876l0.27556,-5.09765c0,0 6.5667,0.43698 10.23191,1.90247c4.51105,1.80366 8.62996,8.88632 6.32314,16.01625c-0.8562,2.64638 -6.35871,11.86659 -17.97852,8.08687c-6.15344,-2.00161 -8.08296,-8.64601 -8.08296,-8.64601" fill="none" stroke="#000000" stroke-width="6" stroke-linecap="round"/></g></g></svg>