<svg version="1.1" xmlns="http://www.w3.org/2000/svg" xmlns:xlink="http://www.w3.org/1999/xlink" width="501.0554" height="375" viewBox="0,0,501.0554,375"><defs><linearGradient x1="541.52872" y1="473.66382" x2="574.75784" y2="504.25721" gradientUnits="userSpaceOnUse" id="color-1"><stop offset="0" stop-color="#ed782b"/><stop offset="1" stop-color="#811150"/></linearGradient><linearGradient x1="618.20562" y1="-123.02075" x2="652.6596" y2="-152.22783" gradientUnits="userSpaceOnUse" id="color-2"><stop offset="0" stop-color="#ed782b"/><stop offset="1" stop-color="#811150"/></linearGradient></defs><g transform="translate(18.5554,11)"><g data-paper-data="{&quot;isPaintingLayer&quot;:true}" fill-rule="nonzero" stroke-linecap="butt" stroke-linejoin="miter" stroke-miterlimit="10" stroke-dasharray="" stroke-dashoffset="0" style="mix-blend-mode: normal"><path d="M-17.5554,363v-373h499.0554v373z" fill="#000000" stroke="#000000" stroke-width="2"/><path d="M132.93604,260.5107c0,0 -15.52093,16.87244 -22.57327,24.53236c-1.84734,2.0065 -4.97159,2.13517 -6.97772,0.28816c-2.0065,-1.84734 -2.13521,-4.97095 -0.28787,-6.97745c5.91259,-6.42199 22.55475,-24.51298 22.55475,-24.51298c0,0 -2.34646,0.08289 -13.10375,0.5275c-2.7252,0.11247 -5.02516,-2.00505 -5.13741,-4.72991c-0.11157,-2.72559 2.00532,-5.0256 4.73025,-5.13778c8.72227,-0.36085 25.03359,-1.03355 25.03359,-1.03355c2.72493,-0.11218 5.02519,2.00562 5.13741,4.72991c0,0 0.58158,14.07568 1.02591,24.83327c0.1126,2.72654 -2.00493,5.0265 -4.73025,5.13778c-2.72498,0.11282 -5.0256,-2.00532 -5.13675,-4.7293c-0.36157,-8.72429 -0.53489,-12.928 -0.53489,-12.928z" fill="url(#color-1)" stroke="none" stroke-width="0"/><text transform="translate(45.4723,316.5) scale(0.5,0.5)" font-size="40" xml:space="preserve" fill="#ed782b" fill-rule="nonzero" stroke="none" stroke-width="1" stroke-linecap="butt" stroke-linejoin="miter" stroke-miterlimit="10" stroke-dasharray="" stroke-dashoffset="0" font-family="Sans Serif" font-weight="normal" text-anchor="start" style="mix-blend-mode: normal"><tspan x="0" dy="0">Tap to select</tspan></text><path d="M356.34003,256.20035c0,0 14.83183,17.48128 21.5646,25.42356c1.76363,2.08046 1.50644,5.19676 -0.57365,6.96007c-2.08046,1.76363 -5.19613,1.50655 -6.95976,-0.5739c-5.64468,-6.6587 -21.54765,-25.40279 -21.54765,-25.40279c0,0 -0.20681,2.3388 -1.09082,13.06892c-0.22411,2.7183 -2.60885,4.73987 -5.32678,4.51558c-2.71857,-0.22506 -4.74027,-2.60917 -4.51591,-5.32716c0.71643,-8.70028 2.05831,-24.97023 2.05831,-24.97023c0.22437,-2.71799 2.60942,-4.73983 5.32678,-4.51558c0,0 14.04011,1.15689 24.77049,2.04121c2.71964,0.22415 4.74122,2.60889 4.51591,5.32716c-0.22374,2.71812 -2.60917,4.74027 -5.32609,4.515c-8.70238,-0.71596 -12.89542,-1.06184 -12.89542,-1.06184z" fill="url(#color-2)" stroke="none" stroke-width="0"/><text transform="translate(320.4723,314.5) scale(0.5,0.5)" font-size="40" xml:space="preserve" fill="#ed782b" fill-rule="nonzero" stroke="none" stroke-width="1" stroke-linecap="butt" stroke-linejoin="miter" stroke-miterlimit="10" stroke-dasharray="" stroke-dashoffset="0" font-family="Sans Serif" font-weight="normal" text-anchor="start" style="mix-blend-mode: normal"><tspan x="0" dy="0">Then, tap to</tspan><tspan x="0" dy="46.150000000000006px"> pour water</tspan></text><text transform="translate(172.4723,51.5) scale(0.8467,0.8467)" font-size="40" xml:space="preserve" fill="#ed782b" fill-rule="nonzero" stroke="none" stroke-width="1" stroke-linecap="butt" stroke-linejoin="miter" stroke-miterlimit="10" stroke-dasharray="" stroke-dashoffset="0" font-family="Sans Serif" font-weight="normal" text-anchor="start" style="mix-blend-mode: normal"><tspan x="0" dy="0">Level</tspan></text></g></g></svg>