<svg version="1.1" xmlns="http://www.w3.org/2000/svg" xmlns:xlink="http://www.w3.org/1999/xlink" width="53.09066" height="53.09066" viewBox="0,0,53.09066,53.09066"><defs><radialGradient cx="240" cy="179.99983" r="26.54487" gradientUnits="userSpaceOnUse" id="color-1"><stop offset="0" stop-color="#e6d325"/><stop offset="1" stop-color="#e37a00"/></radialGradient></defs><g transform="translate(-213.45467,-153.45467)"><g data-paper-data="{&quot;isPaintingLayer&quot;:true}" fill-rule="nonzero" stroke-linejoin="miter" stroke-miterlimit="10" stroke-dasharray="" stroke-dashoffset="0" style="mix-blend-mode: normal"><path d="M213.45467,180c0,-14.66058 11.88475,-26.54533 26.54533,-26.54533c14.66058,0 26.54533,11.88475 26.54533,26.54533c0,14.66058 -11.88475,26.54533 -26.54533,26.54533c-14.66058,0 -26.54533,-11.88475 -26.54533,-26.54533z" fill="url(#color-1)" stroke="none" stroke-width="1" stroke-linecap="butt"/><text transform="translate(224.59107,187.66097) scale(0.5,0.5)" font-size="40" xml:space="preserve" fill="#000000" fill-rule="nonzero" stroke="none" stroke-width="1" stroke-linecap="butt" stroke-linejoin="miter" stroke-miterlimit="10" stroke-dasharray="" stroke-dashoffset="0" font-family="Sans Serif" font-weight="normal" text-anchor="start" style="mix-blend-mode: normal"><tspan x="0" dy="0">+</tspan></text><path d="M237.65016,166.38745c0,0 4.63963,0.13879 6.96477,0.13879c2.33226,0 7.00749,-0.13879 7.00749,-0.13879l-0.04273,2.22072l-1.31387,1.34963c0,0 -0.04161,16.28891 -0.0491,19.00139c-0.07535,4.86958 -2.86876,5.84502 -5.7744,5.98039c-2.72635,-0.10678 -5.55014,-1.21897 -5.60648,-5.994c0.00492,-2.69854 0.0299,-18.9513 0.0299,-18.9513l-1.25831,-1.45551l0.04273,-2.15133z" fill="none" stroke="#000000" stroke-width="3" stroke-linecap="round"/></g></g></svg>